<svg width="200" height="200" viewBox="0 0 200 200" fill="none" xmlns="http://www.w3.org/2000/svg">
<rect width="200" height="200" rx="50" fill="#295C99"/>
<line x1="157.5" y1="160.5" x2="38.5" y2="160.5" stroke="#A1C2E3" stroke-width="3" stroke-linecap="round"/>
<line x1="6" y1="-6" x2="89.8448" y2="-6" transform="matrix(-0.707107 0.707107 0.707107 0.707107 113.754 46.7188)" stroke="#A1C2E3" stroke-width="12" stroke-linecap="round"/>
<line x1="6" y1="-6" x2="65.8836" y2="-6" transform="matrix(-0.707107 0.707107 0.707107 0.707107 91.653 41.1008)" stroke="#A1C2E3" stroke-width="12" stroke-linecap="round"/>
<path d="M157.87 158.732L151.38 144.751L148.883 147.248L146.386 149.745L143.89 152.242L157.87 158.732Z" fill="#F6F8F1" stroke="#F6F8F1"/>
<path d="M44.2479 58.9735C45.0289 59.7546 46.2953 59.7546 47.0763 58.9735L58.9735 47.0763C59.7546 46.2953 59.7546 45.029 58.9735 44.2479L53.1398 38.4142C52.3588 37.6332 51.0924 37.6332 50.3114 38.4142L38.4142 50.3114C37.6331 51.0925 37.6331 52.3588 38.4142 53.1398L44.2479 58.9735Z" fill="#A1C2E3"/>
<path d="M94.4404 86.8214C92.0972 84.4782 88.2983 84.4782 85.9551 86.8214C83.612 89.1645 83.612 92.9635 85.9551 95.3067L94.4404 86.8214ZM138.794 148.146L143.037 152.388L151.522 143.903L147.279 139.66L138.794 148.146ZM85.9551 95.3067L138.794 148.146L147.279 139.66L94.4404 86.8214L85.9551 95.3067Z" fill="#F7F7F2"/>
<line x1="90.6754" y1="94.3951" x2="140.261" y2="143.981" stroke="#295C99" stroke-width="2" stroke-linecap="round"/>
</svg>
